<svg width="41" height="37" viewBox="0 0 41 37" fill="none" xmlns="http://www.w3.org/2000/svg">
<path d="M40.37 13.62L35.23 9.77002L32.8001 7.93994L23.58 1.02002C22.69 0.36002 21.61 0 20.5 0C19.39 0 18.3101 0.36002 17.4201 1.02002L9.43998 7.01001L5.84001 9.70996C5.60001 9.88996 5.3801 10.0901 5.1801 10.3101L0.610027 13.86C0.280027 14.12 0.0700518 14.49 0.0100518 14.91C-0.0399482 15.32 0.0699981 15.7399 0.329998 16.0699C0.469998 16.2599 0.670047 16.42 0.880047 16.52C1.10005 16.63 1.34 16.6801 1.58 16.6801C1.93 16.6801 2.27008 16.57 2.54008 16.35L3.79008 15.38V31.2C3.79008 32.56 4.33008 33.8599 5.29008 34.8199C6.25008 35.7799 7.55008 36.3199 8.91008 36.3199H14.13V30.0699C14.13 28.3799 14.81 26.7699 16 25.5699C17.19 24.3799 18.81 23.71 20.5 23.71C22.18 23.71 23.8 24.3799 25 25.5699C26.19 26.7599 26.86 28.3799 26.87 30.0699V36.3199H32.1C33.45 36.3199 34.76 35.7799 35.72 34.8199C36.68 33.8599 37.22 32.56 37.22 31.2V15.2L38.47 16.14C38.75 16.34 39.0801 16.45 39.4201 16.45C39.6701 16.45 39.91 16.4 40.13 16.29C40.34 16.18 40.5401 16.0199 40.6801 15.8199C40.8101 15.6599 40.9 15.47 40.95 15.27C41 15.07 41.01 14.86 40.98 14.65C40.95 14.45 40.8901 14.2499 40.7801 14.0699C40.6701 13.8999 40.53 13.74 40.37 13.62Z" fill="#1C274C"/>
</svg>
