<svg width="29" height="40" viewBox="0 0 29 40" fill="none" xmlns="http://www.w3.org/2000/svg">
<mask id="mask0_912_311" style="mask-type:luminance" maskUnits="userSpaceOnUse" x="0" y="0" width="29" height="40">
<path d="M28.9827 0H0V39.3338H28.9827V0Z" fill="white"/>
</mask>
<g mask="url(#mask0_912_311)">
<path d="M14.49 16.5601C19.06 16.5601 22.77 12.85 22.77 8.28003C22.77 3.71003 19.06 0 14.49 0C9.91999 0 6.20996 3.71003 6.20996 8.28003C6.20996 12.85 9.91999 16.5601 14.49 16.5601Z" fill="#1C274C"/>
<path opacity="0.5" d="M14.49 39.33C22.49 39.33 28.98 35.63 28.98 31.05C28.98 26.48 22.49 22.77 14.49 22.77C6.48999 22.77 0 26.48 0 31.05C0 35.63 6.48999 39.33 14.49 39.33Z" fill="#1C274C"/>
</g>
</svg>
