<svg width="48" height="38" viewBox="0 0 48 38" fill="none" xmlns="http://www.w3.org/2000/svg">
<mask id="mask0_912_304" style="mask-type:luminance" maskUnits="userSpaceOnUse" x="0" y="0" width="48" height="38">
<path d="M47.5 0H0V38H47.5V0Z" fill="white"/>
</mask>
<g mask="url(#mask0_912_304)">
<path d="M32.0601 8.31006C32.0601 12.9001 28.34 16.63 23.75 16.63C19.16 16.63 15.4399 12.9001 15.4399 8.31006C15.4399 3.72006 19.16 0 23.75 0C28.34 0 32.0601 3.72006 32.0601 8.31006Z" fill="#1C274C"/>
<path opacity="0.4" d="M41.5601 8.31018C41.5601 11.5902 38.9 14.2501 35.63 14.2501C32.35 14.2501 29.6899 11.5902 29.6899 8.31018C29.6899 5.03018 32.35 2.37012 35.63 2.37012C38.9 2.37012 41.5601 5.03018 41.5601 8.31018Z" fill="#1C274C"/>
<path opacity="0.4" d="M5.93994 8.31018C5.93994 11.5902 8.6 14.2501 11.88 14.2501C15.15 14.2501 17.8101 11.5902 17.8101 8.31018C17.8101 5.03018 15.15 2.37012 11.88 2.37012C8.6 2.37012 5.93994 5.03018 5.93994 8.31018Z" fill="#1C274C"/>
<path d="M38 29.6898C38 34.2798 31.62 37.9999 23.75 37.9999C15.88 37.9999 9.5 34.2798 9.5 29.6898C9.5 25.0998 15.88 21.3799 23.75 21.3799C31.62 21.3799 38 25.0998 38 29.6898Z" fill="#1C274C"/>
<path opacity="0.4" d="M47.5 29.6899C47.5 32.9699 43.25 35.63 38 35.63C32.75 35.63 28.5 32.9699 28.5 29.6899C28.5 26.4099 32.75 23.75 38 23.75C43.25 23.75 47.5 26.4099 47.5 29.6899Z" fill="#1C274C"/>
<path opacity="0.4" d="M0 29.6899C0 32.9699 4.25 35.63 9.5 35.63C14.75 35.63 19 32.9699 19 29.6899C19 26.4099 14.75 23.75 9.5 23.75C4.25 23.75 0 26.4099 0 29.6899Z" fill="#1C274C"/>
</g>
</svg>
