<svg width="31" height="31" viewBox="0 0 31 31" fill="none" xmlns="http://www.w3.org/2000/svg">
<path d="M8.78003 20.76H22.22M8.78003 15.38H22.22M8.78003 10.24H22.22M23.98 29.1501C24.95 28.2901 26.4 28.2901 27.37 29.1501C28.03 29.7401 29.0699 29.27 29.0699 28.39V2.62003C29.0699 1.73003 28.03 1.26001 27.37 1.85001C26.4 2.71001 24.95 2.71001 23.98 1.85001C23.01 0.98001 21.55 0.98001 20.59 1.85001C19.62 2.71001 18.16 2.71001 17.2 1.85001C16.23 0.98001 14.77 0.98001 13.8 1.85001C12.84 2.71001 11.38 2.71001 10.41 1.85001C9.45003 0.98001 7.99002 0.98001 7.02002 1.85001C6.05002 2.71001 4.6 2.71001 3.63 1.85001C2.97 1.26001 1.93005 1.73003 1.93005 2.62003V28.39C1.93005 29.27 2.97 29.7401 3.63 29.1501C4.6 28.2901 6.05002 28.2901 7.02002 29.1501C7.99002 30.0201 9.45003 30.0201 10.41 29.1501C11.38 28.2901 12.84 28.2901 13.8 29.1501C14.77 30.0201 16.23 30.0201 17.2 29.1501C18.16 28.2901 19.62 28.2901 20.59 29.1501C21.55 30.0201 23.01 30.0201 23.98 29.1501Z" stroke="#1C274C" stroke-width="2" stroke-linecap="round"/>
</svg>
